<?xml version="1.0" encoding="UTF-8" standalone="no"?>
<svg
   xmlns:dc="http://purl.org/dc/elements/1.1/"
   xmlns:cc="http://creativecommons.org/ns#"
   xmlns:rdf="http://www.w3.org/1999/02/22-rdf-syntax-ns#"
   xmlns:svg="http://www.w3.org/2000/svg"
   xmlns="http://www.w3.org/2000/svg"
   xmlns:sodipodi="http://sodipodi.sourceforge.net/DTD/sodipodi-0.dtd"
   xmlns:inkscape="http://www.inkscape.org/namespaces/inkscape"
   width="424.42499"
   height="243.3925"
   viewBox="0 0 424.42499 243.3925"
   version="1.1"
   id="svg923"
   sodipodi:docname="diagram.svg"
   inkscape:version="1.0.2 (e86c870879, 2021-01-15)">
  <metadata
     id="metadata929">
    <rdf:RDF>
      <cc:Work
         rdf:about="">
        <dc:format>image/svg+xml</dc:format>
        <dc:type
           rdf:resource="http://purl.org/dc/dcmitype/StillImage" />
      </cc:Work>
    </rdf:RDF>
  </metadata>
  <defs
     id="defs927" />
  <sodipodi:namedview
     pagecolor="#ffffff"
     bordercolor="#666666"
     borderopacity="1"
     objecttolerance="10"
     gridtolerance="10"
     guidetolerance="10"
     inkscape:pageopacity="0"
     inkscape:pageshadow="2"
     inkscape:window-width="1779"
     inkscape:window-height="1350"
     id="namedview925"
     showgrid="false"
     inkscape:zoom="1.05"
     inkscape:cx="344"
     inkscape:cy="129.55556"
     inkscape:window-x="349"
     inkscape:window-y="241"
     inkscape:window-maximized="0"
     inkscape:current-layer="svg923" />
  <g
     clip-path="url(#mainClip11777)"
     id="g918"
     transform="translate(-6,-6)">
    <g
       transform="translate(145.7125,17.69625)"
       id="g916">
      <g
         transform="translate(-139.7125,-11.69625)"
         id="g784">
        <g
           id="g774">
          <path
             d="M 0,0 H 119.925 V 31.8925 H 0 Z"
             fill="#282c34"
             stroke="none"
             transform="translate(1.75,1.75)"
             id="path768" />
          <path
             d="M 0,0 H 119.925 V 31.8925 H 0 Z"
             fill="none"
             stroke="#00a9c9"
             stroke-width="3.5"
             stroke-linecap="butt"
             stroke-linejoin="miter"
             stroke-miterlimit="10"
             transform="translate(1.75,1.75)"
             id="path770" />
          <text
             x="0"
             y="11.919375"
             style="font-style:normal;font-variant:normal;font-weight:bold;font-stretch:normal;font-size:14.6667px;line-height:normal;font-family:Lato, Helvetica, Arial, sans-serif"
             text-anchor="start"
             fill="#f8f8f8"
             stroke="none"
             transform="translate(9.75,9.75)"
             id="text772">weather station</text>
        </g>
        <path
           d="M 0,0 H 123.425 V 8 H 0 Z"
           fill="transparent"
           stroke="none"
           id="path776" />
        <path
           d="M 0,0 H 8 V 35.3925 H 0 Z"
           fill="transparent"
           stroke="none"
           id="path778" />
        <path
           d="M 0,0 H 8 V 35.3925 H 0 Z"
           fill="transparent"
           stroke="none"
           transform="translate(115.425)"
           id="path780" />
        <path
           d="M 0,0 H 123.425 V 8 H 0 Z"
           fill="transparent"
           stroke="none"
           transform="translate(0,27.3925)"
           id="path782" />
      </g>
      <g
         transform="translate(27.900002,104.30375)"
         id="g802">
        <g
           id="g792">
          <path
             d="M 0,0 H 84.699997 V 31.8925 H 0 Z"
             fill="#282c34"
             stroke="none"
             transform="translate(1.75,1.75)"
             id="path786" />
          <path
             d="M 0,0 H 84.699997 V 31.8925 H 0 Z"
             fill="none"
             stroke="#00a9c9"
             stroke-width="3.5"
             stroke-linecap="butt"
             stroke-linejoin="miter"
             stroke-miterlimit="10"
             transform="translate(1.75,1.75)"
             id="path788" />
          <text
             x="0"
             y="11.919375"
             style="font-style:normal;font-variant:normal;font-weight:bold;font-stretch:normal;font-size:14.6667px;line-height:normal;font-family:Lato, Helvetica, Arial, sans-serif"
             text-anchor="start"
             fill="#f8f8f8"
             stroke="none"
             transform="translate(9.75,9.75)"
             id="text790">API server</text>
        </g>
        <path
           d="M 0,0 H 88.199997 V 8 H 0 Z"
           fill="transparent"
           stroke="none"
           id="path794" />
        <path
           d="M 0,0 H 8 V 35.3925 H 0 Z"
           fill="transparent"
           stroke="none"
           id="path796" />
        <path
           d="M 0,0 H 8 V 35.3925 H 0 Z"
           fill="transparent"
           stroke="none"
           transform="translate(80.199997)"
           id="path798" />
        <path
           d="M 0,0 H 88.199997 V 8 H 0 Z"
           fill="transparent"
           stroke="none"
           transform="translate(0,27.3925)"
           id="path800" />
      </g>
      <g
         transform="translate(191.4,104.30375)"
         id="g820">
        <g
           id="g810">
          <path
             d="M 0,0 H 75.700001 V 31.8925 H 0 Z"
             fill="#282c34"
             stroke="none"
             transform="translate(1.75,1.75)"
             id="path804" />
          <path
             d="M 0,0 H 75.700001 V 31.8925 H 0 Z"
             fill="none"
             stroke="#00a9c9"
             stroke-width="3.5"
             stroke-linecap="butt"
             stroke-linejoin="miter"
             stroke-miterlimit="10"
             transform="translate(1.75,1.75)"
             id="path806" />
          <text
             x="0"
             y="11.919375"
             style="font-style:normal;font-variant:normal;font-weight:bold;font-stretch:normal;font-size:14.6667px;line-height:normal;font-family:Lato, Helvetica, Arial, sans-serif"
             text-anchor="start"
             fill="#f8f8f8"
             stroke="none"
             transform="translate(9.75,9.75)"
             id="text808">database</text>
        </g>
        <path
           d="M 0,0 H 79.200001 V 8 H 0 Z"
           fill="transparent"
           stroke="none"
           id="path812" />
        <path
           d="M 0,0 H 8 V 35.3925 H 0 Z"
           fill="transparent"
           stroke="none"
           id="path814" />
        <path
           d="M 0,0 H 8 V 35.3925 H 0 Z"
           fill="transparent"
           stroke="none"
           transform="translate(71.200001)"
           id="path816" />
        <path
           d="M 0,0 H 79.200001 V 8 H 0 Z"
           fill="transparent"
           stroke="none"
           transform="translate(0,27.3925)"
           id="path818" />
      </g>
      <g
         transform="translate(10.287498,-11.69625)"
         id="g838">
        <g
           id="g828">
          <path
             d="M 0,0 H 119.925 V 31.8925 H 0 Z"
             fill="#282c34"
             stroke="none"
             transform="translate(1.75,1.75)"
             id="path822" />
          <path
             d="M 0,0 H 119.925 V 31.8925 H 0 Z"
             fill="none"
             stroke="#00a9c9"
             stroke-width="3.5"
             stroke-linecap="butt"
             stroke-linejoin="miter"
             stroke-miterlimit="10"
             transform="translate(1.75,1.75)"
             id="path824" />
          <text
             x="0"
             y="11.919375"
             style="font-style:normal;font-variant:normal;font-weight:bold;font-stretch:normal;font-size:14.6667px;line-height:normal;font-family:Lato, Helvetica, Arial, sans-serif"
             text-anchor="start"
             fill="#f8f8f8"
             stroke="none"
             transform="translate(9.75,9.75)"
             id="text826">weather station</text>
        </g>
        <path
           d="M 0,0 H 123.425 V 8 H 0 Z"
           fill="transparent"
           stroke="none"
           id="path830" />
        <path
           d="M 0,0 H 8 V 35.3925 H 0 Z"
           fill="transparent"
           stroke="none"
           id="path832" />
        <path
           d="M 0,0 H 8 V 35.3925 H 0 Z"
           fill="transparent"
           stroke="none"
           transform="translate(115.425)"
           id="path834" />
        <path
           d="M 0,0 H 123.425 V 8 H 0 Z"
           fill="transparent"
           stroke="none"
           transform="translate(0,27.3925)"
           id="path836" />
      </g>
      <g
         transform="translate(161.2875,-11.69625)"
         id="g856">
        <g
           id="g846">
          <path
             d="M 0,0 H 119.925 V 31.8925 H 0 Z"
             fill="#282c34"
             stroke="none"
             transform="translate(1.75,1.75)"
             id="path840" />
          <path
             d="M 0,0 H 119.925 V 31.8925 H 0 Z"
             fill="none"
             stroke="#00a9c9"
             stroke-width="3.5"
             stroke-linecap="butt"
             stroke-linejoin="miter"
             stroke-miterlimit="10"
             transform="translate(1.75,1.75)"
             id="path842" />
          <text
             x="0"
             y="11.919375"
             style="font-style:normal;font-variant:normal;font-weight:bold;font-stretch:normal;font-size:14.6667px;line-height:normal;font-family:Lato, Helvetica, Arial, sans-serif"
             text-anchor="start"
             fill="#f8f8f8"
             stroke="none"
             transform="translate(9.75,9.75)"
             id="text844">weather station</text>
        </g>
        <path
           d="M 0,0 H 123.425 V 8 H 0 Z"
           fill="transparent"
           stroke="none"
           id="path848" />
        <path
           d="M 0,0 H 8 V 35.3925 H 0 Z"
           fill="transparent"
           stroke="none"
           id="path850" />
        <path
           d="M 0,0 H 8 V 35.3925 H 0 Z"
           fill="transparent"
           stroke="none"
           transform="translate(115.425)"
           id="path852" />
        <path
           d="M 0,0 H 123.425 V 8 H 0 Z"
           fill="transparent"
           stroke="none"
           transform="translate(0,27.3925)"
           id="path854" />
      </g>
      <g
         transform="translate(58.376076,19.69625)"
         id="g864">
        <path
           d="M 0,0 V 76.6075"
           fill="none"
           stroke="transparent"
           stroke-width="8"
           stroke-linecap="butt"
           stroke-linejoin="miter"
           stroke-miterlimit="10"
           transform="translate(13.623924,4)"
           id="path858" />
        <path
           d="M 0,0 V 76.6075"
           fill="none"
           stroke="#dc3c00"
           stroke-width="2"
           stroke-linecap="butt"
           stroke-linejoin="miter"
           stroke-miterlimit="10"
           transform="translate(13.623924,4)"
           id="path860" />
        <path
           d="M 0,0 8,4 0,8 2,4 Z"
           fill="#dc3c00"
           stroke="none"
           transform="rotate(90,-29.491788,47.115712)"
           id="path862" />
      </g>
      <g
         transform="translate(-82,19.69625)"
         id="g872">
        <path
           d="m 0,0 v 35.30375 q 0,5 5,5 h 117.95 q 5,0 5,5 V 76.6075"
           fill="none"
           stroke="transparent"
           stroke-width="8"
           stroke-linecap="butt"
           stroke-linejoin="miter"
           stroke-miterlimit="10"
           transform="translate(4,4)"
           id="path866" />
        <path
           d="m 0,0 v 35.30375 q 0,5 5,5 h 117.95 q 5,0 5,5 V 76.6075"
           fill="none"
           stroke="#dc3c00"
           stroke-width="2"
           stroke-linecap="butt"
           stroke-linejoin="miter"
           stroke-miterlimit="10"
           transform="translate(4,4)"
           id="path868" />
        <path
           d="M 0,0 8,4 0,8 2,4 Z"
           fill="#dc3c00"
           stroke="none"
           transform="rotate(90,29.671251,106.27875)"
           id="path870" />
      </g>
      <g
         transform="translate(90.049999,19.69625)"
         id="g880">
        <path
           d="m 128.95,0 v 35.30375 q 0,5 -5,5 H 5 q -5,0 -5,5 V 76.6075"
           fill="none"
           stroke="transparent"
           stroke-width="8"
           stroke-linecap="butt"
           stroke-linejoin="miter"
           stroke-miterlimit="10"
           transform="translate(4,4)"
           id="path874" />
        <path
           d="m 128.95,0 v 35.30375 q 0,5 -5,5 H 5 q -5,0 -5,5 V 76.6075"
           fill="none"
           stroke="#dc3c00"
           stroke-width="2"
           stroke-linecap="butt"
           stroke-linejoin="miter"
           stroke-miterlimit="10"
           transform="translate(4,4)"
           id="path876" />
        <path
           d="M 0,0 8,4 0,8 2,4 Z"
           fill="#dc3c00"
           stroke="none"
           transform="rotate(90,-34.30375,42.30375)"
           id="path878" />
      </g>
      <g
         transform="translate(112.1,112.02358)"
         id="g888">
        <path
           d="M 0,0 H 71.300001"
           fill="none"
           stroke="transparent"
           stroke-width="8"
           stroke-linecap="butt"
           stroke-linejoin="miter"
           stroke-miterlimit="10"
           transform="translate(4,9.976424)"
           id="path882" />
        <path
           d="M 0,0 H 71.300001"
           fill="none"
           stroke="#dc3c00"
           stroke-width="2"
           stroke-linecap="butt"
           stroke-linejoin="miter"
           stroke-miterlimit="10"
           transform="translate(4,9.976424)"
           id="path884" />
        <path
           d="M 0,0 8,4 0,8 2,4 Z"
           fill="#dc3c00"
           stroke="none"
           transform="translate(71.300001,5.976424)"
           id="path886" />
      </g>
      <g
         transform="translate(34.7875,196.30375)"
         id="g906">
        <g
           id="g896">
          <path
             d="M 0,0 H 70.924999 V 31.8925 H 0 Z"
             fill="#282c34"
             stroke="none"
             transform="translate(1.75,1.75)"
             id="path890" />
          <path
             d="M 0,0 H 70.924999 V 31.8925 H 0 Z"
             fill="none"
             stroke="#00a9c9"
             stroke-width="3.5"
             stroke-linecap="butt"
             stroke-linejoin="miter"
             stroke-miterlimit="10"
             transform="translate(1.75,1.75)"
             id="path892" />
          <text
             x="0"
             y="11.919375"
             style="font-style:normal;font-variant:normal;font-weight:bold;font-stretch:normal;font-size:14.6667px;line-height:normal;font-family:Lato, Helvetica, Arial, sans-serif"
             text-anchor="start"
             fill="#f8f8f8"
             stroke="none"
             transform="translate(9.75,9.75)"
             id="text894">web app</text>
        </g>
        <path
           d="M 0,0 H 74.424999 V 8 H 0 Z"
           fill="transparent"
           stroke="none"
           id="path898" />
        <path
           d="M 0,0 H 8 V 35.3925 H 0 Z"
           fill="transparent"
           stroke="none"
           id="path900" />
        <path
           d="M 0,0 H 8 V 35.3925 H 0 Z"
           fill="transparent"
           stroke="none"
           transform="translate(66.424999)"
           id="path902" />
        <path
           d="M 0,0 H 74.424999 V 8 H 0 Z"
           fill="transparent"
           stroke="none"
           transform="translate(0,27.3925)"
           id="path904" />
      </g>
      <g
         transform="translate(58.376076,135.69625)"
         id="g914">
        <path
           d="M 0,0 V 52.6075"
           fill="none"
           stroke="transparent"
           stroke-width="8"
           stroke-linecap="butt"
           stroke-linejoin="miter"
           stroke-miterlimit="10"
           transform="translate(13.623924,4)"
           id="path908" />
        <path
           d="M 0,0 V 52.6075"
           fill="none"
           stroke="#dc3c00"
           stroke-width="2"
           stroke-linecap="butt"
           stroke-linejoin="miter"
           stroke-miterlimit="10"
           transform="translate(13.623924,4)"
           id="path910" />
        <path
           d="M 0,0 8,4 0,8 2,4 Z"
           fill="#dc3c00"
           stroke="none"
           transform="rotate(90,-17.491788,35.115712)"
           id="path912" />
      </g>
    </g>
  </g>
  <clipPath
     id="mainClip11777">
    <rect
       x="0"
       y="0"
       width="700"
       height="960"
       id="rect920" />
  </clipPath>
</svg>
